<svg width="186" height="139" viewBox="0 0 186 139" fill="none" xmlns="http://www.w3.org/2000/svg">
<path d="M33.3997 11.3667L23.7997 4.65006C21.1831 2.81673 17.1664 2.91673 14.6497 4.86673L6.29974 11.3834C4.63307 12.6834 3.31641 15.3501 3.31641 17.4501V28.9501C3.31641 33.2001 6.76641 36.6667 11.0164 36.6667H28.9831C33.2331 36.6667 36.6831 33.2167 36.6831 28.9667V17.6667C36.6831 15.4167 35.2331 12.6501 33.3997 11.3667ZM21.2497 30.0001C21.2497 30.6834 20.6831 31.2501 19.9997 31.2501C19.3164 31.2501 18.7497 30.6834 18.7497 30.0001V25.0001C18.7497 24.3167 19.3164 23.7501 19.9997 23.7501C20.6831 23.7501 21.2497 24.3167 21.2497 25.0001V30.0001Z" fill="white"/>
<path d="M81.3997 11.3667L71.7997 4.65006C69.1831 2.81673 65.1664 2.91673 62.6497 4.86673L54.2997 11.3834C52.6331 12.6834 51.3164 15.3501 51.3164 17.4501V28.9501C51.3164 33.2001 54.7664 36.6667 59.0164 36.6667H76.9831C81.2331 36.6667 84.6831 33.2167 84.6831 28.9667V17.6667C84.6831 15.4167 83.2331 12.6501 81.3997 11.3667ZM69.2497 30.0001C69.2497 30.6834 68.6831 31.2501 67.9997 31.2501C67.3164 31.2501 66.7497 30.6834 66.7497 30.0001V25.0001C66.7497 24.3167 67.3164 23.7501 67.9997 23.7501C68.6831 23.7501 69.2497 24.3167 69.2497 25.0001V30.0001Z" fill="#9664FF"/>
<path d="M130.817 8.63337V27.4667C130.817 30.7667 128.134 33.45 124.834 33.45C121.55 33.45 118.85 30.7667 118.85 27.4667C118.85 24.1834 121.55 21.5 124.834 21.5C126.234 21.5 127.484 21.9834 128.5 22.7834V12.8667L113.15 17.2334V30.6834C113.15 33.9834 110.45 36.6667 107.167 36.6667C103.867 36.6667 101.184 33.9834 101.184 30.6834C101.184 27.4 103.867 24.7167 107.167 24.7167C108.55 24.7167 109.8 25.2 110.817 25.9834V11.25C110.817 8.80003 112.3 6.90003 114.65 6.2667L124.284 3.63337C126.234 3.10003 127.884 3.28337 129.05 4.18337C130.234 5.0667 130.817 6.5667 130.817 8.63337Z" fill="white"/>
<path d="M178.817 8.63337V27.4667C178.817 30.7667 176.134 33.45 172.834 33.45C169.55 33.45 166.85 30.7667 166.85 27.4667C166.85 24.1834 169.55 21.5 172.834 21.5C174.234 21.5 175.484 21.9834 176.5 22.7834V12.8667L161.15 17.2334V30.6834C161.15 33.9834 158.45 36.6667 155.167 36.6667C151.867 36.6667 149.184 33.9834 149.184 30.6834C149.184 27.4 151.867 24.7167 155.167 24.7167C156.55 24.7167 157.8 25.2 158.817 25.9834V11.25C158.817 8.80003 160.3 6.90003 162.65 6.2667L172.284 3.63337C174.234 3.10003 175.884 3.28337 177.05 4.18337C178.234 5.0667 178.817 6.5667 178.817 8.63337Z" fill="#9664FF"/>
<path d="M24.9991 129.2L14.1324 118.333C12.8491 117.05 12.8491 114.95 14.1324 113.667L24.9991 102.8" stroke="#292D32" stroke-width="3" stroke-miterlimit="10" stroke-linecap="round" stroke-linejoin="round"/>
<g clip-path="url(#clip0_256_5786)">
<path fill-rule="evenodd" clip-rule="evenodd" d="M68 96C56.95 96 48 104.95 48 116C48 124.85 53.725 132.325 61.675 134.975C62.675 135.15 63.05 134.55 63.05 134.025C63.05 133.55 63.025 131.975 63.025 130.3C58 131.225 56.7 129.075 56.3 127.95C56.075 127.375 55.1 125.6 54.25 125.125C53.55 124.75 52.55 123.825 54.225 123.8C55.8 123.775 56.925 125.25 57.3 125.85C59.1 128.875 61.975 128.025 63.125 127.5C63.3 126.2 63.825 125.325 64.4 124.825C59.95 124.325 55.3 122.6 55.3 114.95C55.3 112.775 56.075 110.975 57.35 109.575C57.15 109.075 56.45 107.025 57.55 104.275C57.55 104.275 59.225 103.75 63.05 106.325C64.65 105.875 66.35 105.65 68.05 105.65C69.75 105.65 71.45 105.875 73.05 106.325C76.875 103.725 78.55 104.275 78.55 104.275C79.65 107.025 78.95 109.075 78.75 109.575C80.025 110.975 80.8 112.75 80.8 114.95C80.8 122.625 76.125 124.325 71.675 124.825C72.4 125.45 73.025 126.65 73.025 128.525C73.025 131.2 73 133.35 73 134.025C73 134.55 73.375 135.175 74.375 134.975C78.3454 133.635 81.7954 131.083 84.2396 127.679C86.6838 124.275 87.9989 120.191 88 116C88 104.95 79.05 96 68 96Z" fill="#D9D9D9"/>
</g>
<rect x="96" y="96" width="40" height="40" rx="20" fill="#D9D9D9"/>
<path d="M125.739 115.07C125.689 114.56 125.259 114.18 124.749 114.18H117.199C116.649 114.18 116.199 114.63 116.199 115.18V116.89C116.199 117.44 116.649 117.89 117.199 117.89H121.709C121.599 118.81 120.999 120.2 119.669 121.13C118.819 121.72 117.689 122.13 116.199 122.13C116.129 122.13 116.069 122.13 115.999 122.12C113.449 122.04 111.289 120.33 110.509 117.98C110.299 117.35 110.179 116.69 110.179 116C110.179 115.31 110.299 114.64 110.499 114.02C110.559 113.84 110.629 113.66 110.709 113.48C111.629 111.41 113.639 109.95 115.999 109.88C116.059 109.87 116.129 109.87 116.199 109.87C117.629 109.87 118.699 110.34 119.449 110.86C119.839 111.13 120.359 111.07 120.699 110.74L122.089 109.38C122.529 108.95 122.489 108.22 121.989 107.86C120.399 106.69 118.459 106 116.199 106C116.129 106 116.069 106 115.999 106.01C112.169 106.08 108.879 108.3 107.269 111.51C106.589 112.87 106.199 114.39 106.199 116C106.199 117.61 106.589 119.13 107.269 120.49H107.279C108.889 123.7 112.179 125.92 115.999 125.99C116.069 126 116.129 126 116.199 126C118.899 126 121.169 125.11 122.819 123.58C124.709 121.83 125.799 119.27 125.799 116.22C125.799 115.79 125.779 115.42 125.739 115.07Z" fill="white"/>
<path d="M78.0007 55.3333C71.5723 55.3333 66.334 60.5716 66.334 66.9999C66.334 73.4283 71.5723 78.6666 78.0007 78.6666C84.429 78.6666 89.6673 73.4283 89.6673 66.9999C89.6673 60.5716 84.429 55.3333 78.0007 55.3333ZM81.9207 69.6833C82.259 70.0216 82.259 70.5816 81.9207 70.9199C81.7457 71.0949 81.524 71.1766 81.3023 71.1766C81.0807 71.1766 80.859 71.0949 80.684 70.9199L78.0007 68.2366L75.3173 70.9199C75.1423 71.0949 74.9207 71.1766 74.699 71.1766C74.4773 71.1766 74.2557 71.0949 74.0807 70.9199C73.7423 70.5816 73.7423 70.0216 74.0807 69.6833L76.764 66.9999L74.0807 64.3166C73.7423 63.9783 73.7423 63.4183 74.0807 63.0799C74.419 62.7416 74.979 62.7416 75.3173 63.0799L78.0007 65.7633L80.684 63.0799C81.0223 62.7416 81.5823 62.7416 81.9207 63.0799C82.259 63.4183 82.259 63.9783 81.9207 64.3166L79.2373 66.9999L81.9207 69.6833Z" fill="#292D32"/>
<path d="M53 77H35C34.59 77 34.25 76.66 34.25 76.25C34.25 75.84 34.59 75.5 35 75.5H53C53.41 75.5 53.75 75.84 53.75 76.25C53.75 76.66 53.41 77 53 77Z" fill="white"/>
<path d="M51.0206 58.4799C49.0806 56.5399 47.1806 56.4899 45.1906 58.4799L43.9806 59.6899C43.8806 59.7899 43.8406 59.9499 43.8806 60.0899C44.6406 62.7399 46.7606 64.8599 49.4106 65.6199C49.4506 65.6299 49.4906 65.6399 49.5306 65.6399C49.6406 65.6399 49.7406 65.5999 49.8206 65.5199L51.0206 64.3099C52.0106 63.3299 52.4906 62.3799 52.4906 61.4199C52.5006 60.4299 52.0206 59.4699 51.0206 58.4799Z" fill="white"/>
<path d="M47.6103 66.53C47.3203 66.39 47.0403 66.25 46.7703 66.09C46.5503 65.96 46.3403 65.82 46.1303 65.67C45.9603 65.56 45.7603 65.4 45.5703 65.24C45.5503 65.23 45.4803 65.17 45.4003 65.09C45.0703 64.81 44.7003 64.45 44.3703 64.05C44.3403 64.03 44.2903 63.96 44.2203 63.87C44.1203 63.75 43.9503 63.55 43.8003 63.32C43.6803 63.17 43.5403 62.95 43.4103 62.73C43.2503 62.46 43.1103 62.19 42.9703 61.91C42.9491 61.8647 42.9286 61.8195 42.9088 61.7746C42.7612 61.4413 42.3265 61.3438 42.0688 61.6016L36.3403 67.33C36.2103 67.46 36.0903 67.71 36.0603 67.88L35.5203 71.71C35.4203 72.39 35.6103 73.03 36.0303 73.46C36.3903 73.81 36.8903 74 37.4303 74C37.5503 74 37.6703 73.99 37.7903 73.97L41.6303 73.43C41.8103 73.4 42.0603 73.28 42.1803 73.15L47.9016 67.4287C48.1612 67.1692 48.0633 66.7237 47.7257 66.5797C47.6877 66.5634 47.6492 66.5469 47.6103 66.53Z" fill="white"/>
<path d="M53 77H35C34.59 77 34.25 76.66 34.25 76.25C34.25 75.84 34.59 75.5 35 75.5H53C53.41 75.5 53.75 75.84 53.75 76.25C53.75 76.66 53.41 77 53 77Z" fill="white"/>
<path d="M51.0206 58.4799C49.0806 56.5399 47.1806 56.4899 45.1906 58.4799L43.9806 59.6899C43.8806 59.7899 43.8406 59.9499 43.8806 60.0899C44.6406 62.7399 46.7606 64.8599 49.4106 65.6199C49.4506 65.6299 49.4906 65.6399 49.5306 65.6399C49.6406 65.6399 49.7406 65.5999 49.8206 65.5199L51.0206 64.3099C52.0106 63.3299 52.4906 62.3799 52.4906 61.4199C52.5006 60.4299 52.0206 59.4699 51.0206 58.4799Z" fill="white"/>
<path d="M47.6103 66.53C47.3203 66.39 47.0403 66.25 46.7703 66.09C46.5503 65.96 46.3403 65.82 46.1303 65.67C45.9603 65.56 45.7603 65.4 45.5703 65.24C45.5503 65.23 45.4803 65.17 45.4003 65.09C45.0703 64.81 44.7003 64.45 44.3703 64.05C44.3403 64.03 44.2903 63.96 44.2203 63.87C44.1203 63.75 43.9503 63.55 43.8003 63.32C43.6803 63.17 43.5403 62.95 43.4103 62.73C43.2503 62.46 43.1103 62.19 42.9703 61.91C42.9491 61.8647 42.9286 61.8195 42.9088 61.7746C42.7612 61.4413 42.3265 61.3438 42.0688 61.6016L36.3403 67.33C36.2103 67.46 36.0903 67.71 36.0603 67.88L35.5203 71.71C35.4203 72.39 35.6103 73.03 36.0303 73.46C36.3903 73.81 36.8903 74 37.4303 74C37.5503 74 37.6703 73.99 37.7903 73.97L41.6303 73.43C41.8103 73.4 42.0603 73.28 42.1803 73.15L47.9016 67.4287C48.1612 67.1692 48.0633 66.7237 47.7257 66.5797C47.6877 66.5634 47.6492 66.5469 47.6103 66.53Z" fill="white"/>
<path d="M21 77H3C2.59 77 2.25 76.66 2.25 76.25C2.25 75.84 2.59 75.5 3 75.5H21C21.41 75.5 21.75 75.84 21.75 76.25C21.75 76.66 21.41 77 21 77Z" fill="white"/>
<path d="M19.0206 58.4799C17.0806 56.5399 15.1806 56.4899 13.1906 58.4799L11.9806 59.6899C11.8806 59.7899 11.8406 59.9499 11.8806 60.0899C12.6406 62.7399 14.7606 64.8599 17.4106 65.6199C17.4506 65.6299 17.4906 65.6399 17.5306 65.6399C17.6406 65.6399 17.7406 65.5999 17.8206 65.5199L19.0206 64.3099C20.0106 63.3299 20.4906 62.3799 20.4906 61.4199C20.5006 60.4299 20.0206 59.4699 19.0206 58.4799Z" fill="white"/>
<path d="M15.6103 66.53C15.3203 66.39 15.0403 66.25 14.7703 66.09C14.5503 65.96 14.3403 65.82 14.1303 65.67C13.9603 65.56 13.7603 65.4 13.5703 65.24C13.5503 65.23 13.4803 65.17 13.4003 65.09C13.0703 64.81 12.7003 64.45 12.3703 64.05C12.3403 64.03 12.2903 63.96 12.2203 63.87C12.1203 63.75 11.9503 63.55 11.8003 63.32C11.6803 63.17 11.5403 62.95 11.4103 62.73C11.2503 62.46 11.1103 62.19 10.9703 61.91C10.9491 61.8647 10.9286 61.8195 10.9088 61.7746C10.7612 61.4413 10.3265 61.3438 10.0688 61.6016L4.34032 67.33C4.21032 67.46 4.09032 67.71 4.06032 67.88L3.52032 71.71C3.42032 72.39 3.61032 73.03 4.03032 73.46C4.39032 73.81 4.89032 74 5.43032 74C5.55032 74 5.67032 73.99 5.79032 73.97L9.63032 73.43C9.81032 73.4 10.0603 73.28 10.1803 73.15L15.9016 67.4287C16.1612 67.1692 16.0633 66.7237 15.7257 66.5797C15.6877 66.5634 15.6492 66.5469 15.6103 66.53Z" fill="white"/>
<path d="M21 77H3C2.59 77 2.25 76.66 2.25 76.25C2.25 75.84 2.59 75.5 3 75.5H21C21.41 75.5 21.75 75.84 21.75 76.25C21.75 76.66 21.41 77 21 77Z" fill="#9664FF"/>
<path d="M19.0206 58.4799C17.0806 56.5399 15.1806 56.4899 13.1906 58.4799L11.9806 59.6899C11.8806 59.7899 11.8406 59.9499 11.8806 60.0899C12.6406 62.7399 14.7606 64.8599 17.4106 65.6199C17.4506 65.6299 17.4906 65.6399 17.5306 65.6399C17.6406 65.6399 17.7406 65.5999 17.8206 65.5199L19.0206 64.3099C20.0106 63.3299 20.4906 62.3799 20.4906 61.4199C20.5006 60.4299 20.0206 59.4699 19.0206 58.4799Z" fill="#9664FF"/>
<path d="M15.6103 66.53C15.3203 66.39 15.0403 66.25 14.7703 66.09C14.5503 65.96 14.3403 65.82 14.1303 65.67C13.9603 65.56 13.7603 65.4 13.5703 65.24C13.5503 65.23 13.4803 65.17 13.4003 65.09C13.0703 64.81 12.7003 64.45 12.3703 64.05C12.3403 64.03 12.2903 63.96 12.2203 63.87C12.1203 63.75 11.9503 63.55 11.8003 63.32C11.6803 63.17 11.5403 62.95 11.4103 62.73C11.2503 62.46 11.1103 62.19 10.9703 61.91C10.9491 61.8647 10.9286 61.8195 10.9088 61.7746C10.7612 61.4413 10.3265 61.3438 10.0688 61.6016L4.34032 67.33C4.21032 67.46 4.09032 67.71 4.06032 67.88L3.52032 71.71C3.42032 72.39 3.61032 73.03 4.03032 73.46C4.39032 73.81 4.89032 74 5.43032 74C5.55032 74 5.67032 73.99 5.79032 73.97L9.63032 73.43C9.81032 73.4 10.0603 73.28 10.1803 73.15L15.9016 67.4287C16.1612 67.1692 16.0633 66.7237 15.7257 66.5797C15.6877 66.5634 15.6492 66.5469 15.6103 66.53Z" fill="#9664FF"/>
<path d="M121.022 60.8609V71.0317C121.022 72.8138 119.3 74.2629 117.181 74.2629C115.074 74.2629 113.341 72.8138 113.341 71.0317C113.341 69.2585 115.074 67.8094 117.181 67.8094C118.08 67.8094 118.882 68.0704 119.535 68.5025V63.1471L109.682 65.5053V72.7688C109.682 74.5509 107.948 76 105.841 76C103.722 76 102 74.5509 102 72.7688C102 70.9957 103.722 69.5466 105.841 69.5466C106.729 69.5466 107.531 69.8076 108.184 70.2306V62.274C108.184 60.951 109.136 59.9249 110.645 59.5829L116.828 58.1608C118.08 57.8727 119.139 57.9717 119.888 58.4578C120.648 58.9348 121.022 59.7449 121.022 60.8609Z" fill="#9664FF"/>
<path d="M152.97 56H150.03C149.16 56 148.52 56.36 148.23 57C148.07 57.29 148 57.63 148 58.03V60.97C148 62.24 148.76 63 150.03 63H152.97C153.37 63 153.71 62.93 154 62.77C154.64 62.48 155 61.84 155 60.97V58.03C155 56.76 154.24 56 152.97 56ZM153.91 59.93C153.81 60.03 153.66 60.1 153.5 60.11H152.09V60.62L152.1 61.5C152.09 61.67 152.03 61.81 151.91 61.93C151.81 62.03 151.66 62.1 151.5 62.1C151.17 62.1 150.9 61.83 150.9 61.5V60.1L149.5 60.11C149.17 60.11 148.9 59.83 148.9 59.5C148.9 59.17 149.17 58.9 149.5 58.9L150.38 58.91H150.9V57.51C150.9 57.18 151.17 56.9 151.5 56.9C151.83 56.9 152.1 57.18 152.1 57.51L152.09 58.22V58.9H153.5C153.83 58.9 154.1 59.17 154.1 59.5C154.09 59.67 154.02 59.81 153.91 59.93Z" fill="black"/>
<path d="M140.999 65.3801C142.314 65.3801 143.379 64.3146 143.379 63.0001C143.379 61.6857 142.314 60.6201 140.999 60.6201C139.685 60.6201 138.619 61.6857 138.619 63.0001C138.619 64.3146 139.685 65.3801 140.999 65.3801Z" fill="black"/>
<path d="M152.97 63H152.5V67.61L152.37 67.5C151.59 66.83 150.33 66.83 149.55 67.5L145.39 71.07C144.61 71.74 143.35 71.74 142.57 71.07L142.23 70.79C141.52 70.17 140.39 70.11 139.59 70.65L135.85 73.16C135.63 72.6 135.5 71.95 135.5 71.19V62.81C135.5 59.99 136.99 58.5 139.81 58.5H148V58.03C148 57.63 148.07 57.29 148.23 57H139.81C136.17 57 134 59.17 134 62.81V71.19C134 72.28 134.19 73.23 134.56 74.03C135.42 75.93 137.26 77 139.81 77H148.19C151.83 77 154 74.83 154 71.19V62.77C153.71 62.93 153.37 63 152.97 63Z" fill="black"/>
<path d="M185.721 61.28V62.45C185.721 63.43 185.331 64.27 184.641 64.76C184.211 65.08 183.681 65.23 183.131 65.23C182.791 65.23 182.451 65.18 182.101 65.06L176.721 63.27V73C176.721 75.62 174.591 77.75 171.971 77.75C169.351 77.75 167.221 75.62 167.221 73C167.221 70.38 169.351 68.25 171.971 68.25C173.231 68.25 174.371 68.75 175.221 69.55V59C175.221 58.03 175.621 57.19 176.311 56.69C177.001 56.2 177.921 56.09 178.841 56.39L183.261 57.87C184.621 58.32 185.721 59.85 185.721 61.28Z" fill="#292D32"/>
<defs>
<clipPath id="clip0_256_5786">
<rect width="40" height="40" fill="white" transform="translate(48 96)"/>
</clipPath>
</defs>
</svg>
