<svg width="19" height="22" viewBox="0 0 19 22" fill="none" xmlns="http://www.w3.org/2000/svg">
<path d="M18.7207 5.28001V6.45001C18.7207 7.43001 18.3307 8.27001 17.6407 8.76001C17.2107 9.08001 16.6807 9.23001 16.1307 9.23001C15.7907 9.23001 15.4507 9.18001 15.1007 9.06001L9.7207 7.27001V17C9.7207 19.62 7.5907 21.75 4.9707 21.75C2.3507 21.75 0.220703 19.62 0.220703 17C0.220703 14.38 2.3507 12.25 4.9707 12.25C6.2307 12.25 7.3707 12.75 8.2207 13.55V3.00001C8.2207 2.03001 8.6207 1.19001 9.3107 0.690011C10.0007 0.200011 10.9207 0.0900104 11.8407 0.39001L16.2607 1.87001C17.6207 2.32001 18.7207 3.85001 18.7207 5.28001Z" fill="#292D32"/>
</svg>


