<svg width="184" height="139" viewBox="0 0 184 139" fill="none" xmlns="http://www.w3.org/2000/svg">
<path d="M33.3997 11.3667L23.7997 4.65006C21.1831 2.81673 17.1664 2.91673 14.6497 4.86673L6.29974 11.3834C4.63307 12.6834 3.31641 15.3501 3.31641 17.4501V28.9501C3.31641 33.2001 6.76641 36.6667 11.0164 36.6667H28.9831C33.2331 36.6667 36.6831 33.2167 36.6831 28.9667V17.6667C36.6831 15.4167 35.2331 12.6501 33.3997 11.3667ZM21.2497 30.0001C21.2497 30.6834 20.6831 31.2501 19.9997 31.2501C19.3164 31.2501 18.7497 30.6834 18.7497 30.0001V25.0001C18.7497 24.3167 19.3164 23.7501 19.9997 23.7501C20.6831 23.7501 21.2497 24.3167 21.2497 25.0001V30.0001Z" fill="white"/>
<path d="M81.3997 11.3667L71.7997 4.65006C69.1831 2.81673 65.1664 2.91673 62.6497 4.86673L54.2997 11.3834C52.6331 12.6834 51.3164 15.3501 51.3164 17.4501V28.9501C51.3164 33.2001 54.7664 36.6667 59.0164 36.6667H76.9831C81.2331 36.6667 84.6831 33.2167 84.6831 28.9667V17.6667C84.6831 15.4167 83.2331 12.6501 81.3997 11.3667ZM69.2497 30.0001C69.2497 30.6834 68.6831 31.2501 67.9997 31.2501C67.3164 31.2501 66.7497 30.6834 66.7497 30.0001V25.0001C66.7497 24.3167 67.3164 23.7501 67.9997 23.7501C68.6831 23.7501 69.2497 24.3167 69.2497 25.0001V30.0001Z" fill="#9664FF"/>
<path d="M130.817 8.63337V27.4667C130.817 30.7667 128.134 33.45 124.834 33.45C121.55 33.45 118.85 30.7667 118.85 27.4667C118.85 24.1834 121.55 21.5 124.834 21.5C126.234 21.5 127.484 21.9834 128.5 22.7834V12.8667L113.15 17.2334V30.6834C113.15 33.9834 110.45 36.6667 107.167 36.6667C103.867 36.6667 101.184 33.9834 101.184 30.6834C101.184 27.4 103.867 24.7167 107.167 24.7167C108.55 24.7167 109.8 25.2 110.817 25.9834V11.25C110.817 8.80003 112.3 6.90003 114.65 6.2667L124.284 3.63337C126.234 3.10003 127.884 3.28337 129.05 4.18337C130.234 5.0667 130.817 6.5667 130.817 8.63337Z" fill="white"/>
<path d="M178.817 8.63337V27.4667C178.817 30.7667 176.134 33.45 172.834 33.45C169.55 33.45 166.85 30.7667 166.85 27.4667C166.85 24.1834 169.55 21.5 172.834 21.5C174.234 21.5 175.484 21.9834 176.5 22.7834V12.8667L161.15 17.2334V30.6834C161.15 33.9834 158.45 36.6667 155.167 36.6667C151.867 36.6667 149.184 33.9834 149.184 30.6834C149.184 27.4 151.867 24.7167 155.167 24.7167C156.55 24.7167 157.8 25.2 158.817 25.9834V11.25C158.817 8.80003 160.3 6.90003 162.65 6.2667L172.284 3.63337C174.234 3.10003 175.884 3.28337 177.05 4.18337C178.234 5.0667 178.817 6.5667 178.817 8.63337Z" fill="#9664FF"/>
<path d="M78.0007 56.3333C71.5723 56.3333 66.334 61.5716 66.334 67.9999C66.334 74.4283 71.5723 79.6666 78.0007 79.6666C84.429 79.6666 89.6673 74.4283 89.6673 67.9999C89.6673 61.5716 84.429 56.3333 78.0007 56.3333ZM81.9207 70.6833C82.259 71.0216 82.259 71.5816 81.9207 71.9199C81.7457 72.0949 81.524 72.1766 81.3023 72.1766C81.0807 72.1766 80.859 72.0949 80.684 71.9199L78.0007 69.2366L75.3173 71.9199C75.1423 72.0949 74.9207 72.1766 74.699 72.1766C74.4773 72.1766 74.2557 72.0949 74.0807 71.9199C73.7423 71.5816 73.7423 71.0216 74.0807 70.6833L76.764 67.9999L74.0807 65.3166C73.7423 64.9783 73.7423 64.4183 74.0807 64.0799C74.419 63.7416 74.979 63.7416 75.3173 64.0799L78.0007 66.7633L80.684 64.0799C81.0223 63.7416 81.5823 63.7416 81.9207 64.0799C82.259 64.4183 82.259 64.9783 81.9207 65.3166L79.2373 67.9999L81.9207 70.6833Z" fill="#292D32"/>
<path d="M53 78H35C34.59 78 34.25 77.66 34.25 77.25C34.25 76.84 34.59 76.5 35 76.5H53C53.41 76.5 53.75 76.84 53.75 77.25C53.75 77.66 53.41 78 53 78Z" fill="white"/>
<path d="M51.0206 59.4799C49.0806 57.5399 47.1806 57.4899 45.1906 59.4799L43.9806 60.6899C43.8806 60.7899 43.8406 60.9499 43.8806 61.0899C44.6406 63.7399 46.7606 65.8599 49.4106 66.6199C49.4506 66.6299 49.4906 66.6399 49.5306 66.6399C49.6406 66.6399 49.7406 66.5999 49.8206 66.5199L51.0206 65.3099C52.0106 64.3299 52.4906 63.3799 52.4906 62.4199C52.5006 61.4299 52.0206 60.4699 51.0206 59.4799Z" fill="white"/>
<path d="M47.6103 67.53C47.3203 67.39 47.0403 67.25 46.7703 67.09C46.5503 66.96 46.3403 66.82 46.1303 66.67C45.9603 66.56 45.7603 66.4 45.5703 66.24C45.5503 66.23 45.4803 66.17 45.4003 66.09C45.0703 65.81 44.7003 65.45 44.3703 65.05C44.3403 65.03 44.2903 64.96 44.2203 64.87C44.1203 64.75 43.9503 64.55 43.8003 64.32C43.6803 64.17 43.5403 63.95 43.4103 63.73C43.2503 63.46 43.1103 63.19 42.9703 62.91C42.9491 62.8647 42.9286 62.8195 42.9088 62.7746C42.7612 62.4413 42.3265 62.3438 42.0688 62.6016L36.3403 68.33C36.2103 68.46 36.0903 68.71 36.0603 68.88L35.5203 72.71C35.4203 73.39 35.6103 74.03 36.0303 74.46C36.3903 74.81 36.8903 75 37.4303 75C37.5503 75 37.6703 74.99 37.7903 74.97L41.6303 74.43C41.8103 74.4 42.0603 74.28 42.1803 74.15L47.9016 68.4287C48.1612 68.1692 48.0633 67.7237 47.7257 67.5797C47.6877 67.5634 47.6492 67.5469 47.6103 67.53Z" fill="white"/>
<path d="M53 78H35C34.59 78 34.25 77.66 34.25 77.25C34.25 76.84 34.59 76.5 35 76.5H53C53.41 76.5 53.75 76.84 53.75 77.25C53.75 77.66 53.41 78 53 78Z" fill="white"/>
<path d="M51.0206 59.4799C49.0806 57.5399 47.1806 57.4899 45.1906 59.4799L43.9806 60.6899C43.8806 60.7899 43.8406 60.9499 43.8806 61.0899C44.6406 63.7399 46.7606 65.8599 49.4106 66.6199C49.4506 66.6299 49.4906 66.6399 49.5306 66.6399C49.6406 66.6399 49.7406 66.5999 49.8206 66.5199L51.0206 65.3099C52.0106 64.3299 52.4906 63.3799 52.4906 62.4199C52.5006 61.4299 52.0206 60.4699 51.0206 59.4799Z" fill="white"/>
<path d="M47.6103 67.53C47.3203 67.39 47.0403 67.25 46.7703 67.09C46.5503 66.96 46.3403 66.82 46.1303 66.67C45.9603 66.56 45.7603 66.4 45.5703 66.24C45.5503 66.23 45.4803 66.17 45.4003 66.09C45.0703 65.81 44.7003 65.45 44.3703 65.05C44.3403 65.03 44.2903 64.96 44.2203 64.87C44.1203 64.75 43.9503 64.55 43.8003 64.32C43.6803 64.17 43.5403 63.95 43.4103 63.73C43.2503 63.46 43.1103 63.19 42.9703 62.91C42.9491 62.8647 42.9286 62.8195 42.9088 62.7746C42.7612 62.4413 42.3265 62.3438 42.0688 62.6016L36.3403 68.33C36.2103 68.46 36.0903 68.71 36.0603 68.88L35.5203 72.71C35.4203 73.39 35.6103 74.03 36.0303 74.46C36.3903 74.81 36.8903 75 37.4303 75C37.5503 75 37.6703 74.99 37.7903 74.97L41.6303 74.43C41.8103 74.4 42.0603 74.28 42.1803 74.15L47.9016 68.4287C48.1612 68.1692 48.0633 67.7237 47.7257 67.5797C47.6877 67.5634 47.6492 67.5469 47.6103 67.53Z" fill="white"/>
<path d="M21 78H3C2.59 78 2.25 77.66 2.25 77.25C2.25 76.84 2.59 76.5 3 76.5H21C21.41 76.5 21.75 76.84 21.75 77.25C21.75 77.66 21.41 78 21 78Z" fill="white"/>
<path d="M19.0206 59.4799C17.0806 57.5399 15.1806 57.4899 13.1906 59.4799L11.9806 60.6899C11.8806 60.7899 11.8406 60.9499 11.8806 61.0899C12.6406 63.7399 14.7606 65.8599 17.4106 66.6199C17.4506 66.6299 17.4906 66.6399 17.5306 66.6399C17.6406 66.6399 17.7406 66.5999 17.8206 66.5199L19.0206 65.3099C20.0106 64.3299 20.4906 63.3799 20.4906 62.4199C20.5006 61.4299 20.0206 60.4699 19.0206 59.4799Z" fill="white"/>
<path d="M15.6103 67.53C15.3203 67.39 15.0403 67.25 14.7703 67.09C14.5503 66.96 14.3403 66.82 14.1303 66.67C13.9603 66.56 13.7603 66.4 13.5703 66.24C13.5503 66.23 13.4803 66.17 13.4003 66.09C13.0703 65.81 12.7003 65.45 12.3703 65.05C12.3403 65.03 12.2903 64.96 12.2203 64.87C12.1203 64.75 11.9503 64.55 11.8003 64.32C11.6803 64.17 11.5403 63.95 11.4103 63.73C11.2503 63.46 11.1103 63.19 10.9703 62.91C10.9491 62.8647 10.9286 62.8195 10.9088 62.7746C10.7612 62.4413 10.3265 62.3438 10.0688 62.6016L4.34032 68.33C4.21032 68.46 4.09032 68.71 4.06032 68.88L3.52032 72.71C3.42032 73.39 3.61032 74.03 4.03032 74.46C4.39032 74.81 4.89032 75 5.43032 75C5.55032 75 5.67032 74.99 5.79032 74.97L9.63032 74.43C9.81032 74.4 10.0603 74.28 10.1803 74.15L15.9016 68.4287C16.1612 68.1692 16.0633 67.7237 15.7257 67.5797C15.6877 67.5634 15.6492 67.5469 15.6103 67.53Z" fill="white"/>
<path d="M19.0206 59.4799C17.0806 57.5399 15.1806 57.4899 13.1906 59.4799L11.9806 60.6899C11.8806 60.7899 11.8406 60.9499 11.8806 61.0899C12.6406 63.7399 14.7606 65.8599 17.4106 66.6199C17.4506 66.6299 17.4906 66.6399 17.5306 66.6399C17.6406 66.6399 17.7406 66.5999 17.8206 66.5199L19.0206 65.3099C20.0106 64.3299 20.4906 63.3799 20.4906 62.4199C20.5006 61.4299 20.0206 60.4699 19.0206 59.4799Z" fill="#9664FF"/>
<path d="M15.6103 67.53C15.3203 67.39 15.0403 67.25 14.7703 67.09C14.5503 66.96 14.3403 66.82 14.1303 66.67C13.9603 66.56 13.7603 66.4 13.5703 66.24C13.5503 66.23 13.4803 66.17 13.4003 66.09C13.0703 65.81 12.7003 65.45 12.3703 65.05C12.3403 65.03 12.2903 64.96 12.2203 64.87C12.1203 64.75 11.9503 64.55 11.8003 64.32C11.6803 64.17 11.5403 63.95 11.4103 63.73C11.2503 63.46 11.1103 63.19 10.9703 62.91C10.9491 62.8647 10.9286 62.8195 10.9088 62.7746C10.7612 62.4413 10.3265 62.3438 10.0688 62.6016L4.34032 68.33C4.21032 68.46 4.09032 68.71 4.06032 68.88L3.52032 72.71C3.42032 73.39 3.61032 74.03 4.03032 74.46C4.39032 74.81 4.89032 75 5.43032 75C5.55032 75 5.67032 74.99 5.79032 74.97L9.63032 74.43C9.81032 74.4 10.0603 74.28 10.1803 74.15L15.9016 68.4287C16.1612 68.1692 16.0633 67.7237 15.7257 67.5797C15.6877 67.5634 15.6492 67.5469 15.6103 67.53Z" fill="#9664FF"/>
<path d="M121.022 61.8609V72.0317C121.022 73.8138 119.3 75.2629 117.181 75.2629C115.074 75.2629 113.341 73.8138 113.341 72.0317C113.341 70.2585 115.074 68.8094 117.181 68.8094C118.08 68.8094 118.882 69.0704 119.535 69.5025V64.1471L109.682 66.5053V73.7688C109.682 75.5509 107.948 77 105.841 77C103.722 77 102 75.5509 102 73.7688C102 71.9957 103.722 70.5466 105.841 70.5466C106.729 70.5466 107.531 70.8076 108.184 71.2306V63.274C108.184 61.951 109.136 60.9249 110.645 60.5829L116.828 59.1608C118.08 58.8727 119.139 58.9717 119.888 59.4578C120.648 59.9348 121.022 60.7449 121.022 61.8609Z" fill="#9664FF"/>
<path d="M24.9991 129.2L14.1324 118.333C12.8491 117.05 12.8491 114.95 14.1324 113.667L24.9991 102.8" stroke="#292D32" stroke-width="3" stroke-miterlimit="10" stroke-linecap="round" stroke-linejoin="round"/>
<g clip-path="url(#clip0_256_5786)">
<path fill-rule="evenodd" clip-rule="evenodd" d="M68 96C56.95 96 48 104.95 48 116C48 124.85 53.725 132.325 61.675 134.975C62.675 135.15 63.05 134.55 63.05 134.025C63.05 133.55 63.025 131.975 63.025 130.3C58 131.225 56.7 129.075 56.3 127.95C56.075 127.375 55.1 125.6 54.25 125.125C53.55 124.75 52.55 123.825 54.225 123.8C55.8 123.775 56.925 125.25 57.3 125.85C59.1 128.875 61.975 128.025 63.125 127.5C63.3 126.2 63.825 125.325 64.4 124.825C59.95 124.325 55.3 122.6 55.3 114.95C55.3 112.775 56.075 110.975 57.35 109.575C57.15 109.075 56.45 107.025 57.55 104.275C57.55 104.275 59.225 103.75 63.05 106.325C64.65 105.875 66.35 105.65 68.05 105.65C69.75 105.65 71.45 105.875 73.05 106.325C76.875 103.725 78.55 104.275 78.55 104.275C79.65 107.025 78.95 109.075 78.75 109.575C80.025 110.975 80.8 112.75 80.8 114.95C80.8 122.625 76.125 124.325 71.675 124.825C72.4 125.45 73.025 126.65 73.025 128.525C73.025 131.2 73 133.35 73 134.025C73 134.55 73.375 135.175 74.375 134.975C78.3454 133.635 81.7954 131.083 84.2396 127.679C86.6838 124.275 87.9989 120.191 88 116C88 104.95 79.05 96 68 96Z" fill="#D9D9D9"/>
</g>
<rect x="96" y="96" width="40" height="40" rx="20" fill="#D9D9D9"/>
<path d="M125.739 115.07C125.689 114.56 125.259 114.18 124.749 114.18H117.199C116.649 114.18 116.199 114.63 116.199 115.18V116.89C116.199 117.44 116.649 117.89 117.199 117.89H121.709C121.599 118.81 120.999 120.2 119.669 121.13C118.819 121.72 117.689 122.13 116.199 122.13C116.129 122.13 116.069 122.13 115.999 122.12C113.449 122.04 111.289 120.33 110.509 117.98C110.299 117.35 110.179 116.69 110.179 116C110.179 115.31 110.299 114.64 110.499 114.02C110.559 113.84 110.629 113.66 110.709 113.48C111.629 111.41 113.639 109.95 115.999 109.88C116.059 109.87 116.129 109.87 116.199 109.87C117.629 109.87 118.699 110.34 119.449 110.86C119.839 111.13 120.359 111.07 120.699 110.74L122.089 109.38C122.529 108.95 122.489 108.22 121.989 107.86C120.399 106.69 118.459 106 116.199 106C116.129 106 116.069 106 115.999 106.01C112.169 106.08 108.879 108.3 107.269 111.51C106.589 112.87 106.199 114.39 106.199 116C106.199 117.61 106.589 119.13 107.269 120.49H107.279C108.889 123.7 112.179 125.92 115.999 125.99C116.069 126 116.129 126 116.199 126C118.899 126 121.169 125.11 122.819 123.58C124.709 121.83 125.799 119.27 125.799 116.22C125.799 115.79 125.779 115.42 125.739 115.07Z" fill="white"/>
<defs>
<clipPath id="clip0_256_5786">
<rect width="40" height="40" fill="white" transform="translate(48 96)"/>
</clipPath>
</defs>
</svg>
